<svg width="128" height="23" viewBox="0 0 128 23" fill="none" xmlns="http://www.w3.org/2000/svg">
<path d="M16.9073 0.887052C17.4851 1.30946 17.8039 1.71074 17.8636 2.09091C17.9234 2.47107 17.7839 2.9146 17.4452 3.42149L10.7807 14.0978V20.9091C10.7807 21.2681 10.7408 21.5955 10.6611 21.8912C10.6013 22.1658 10.442 22.3875 10.1829 22.5565C9.92394 22.7466 9.5155 22.8416 8.95763 22.8416C8.37983 22.8416 7.96143 22.7466 7.70242 22.5565C7.46333 22.3875 7.30394 22.1552 7.22424 21.8595C7.16447 21.5638 7.13458 21.2259 7.13458 20.8457V14.0978L0.440138 3.45317C0.081507 2.92516 -0.0579606 2.47107 0.0217352 2.09091C0.121355 1.71074 0.4501 1.32002 1.00797 0.918732C1.40645 0.623048 1.74516 0.443526 2.02409 0.380166C2.32295 0.316805 2.59192 0.369605 2.83101 0.538568C3.0701 0.70753 3.29922 0.982093 3.51839 1.36226L8.89785 10.3912L14.367 1.36226C14.6061 0.982093 14.8352 0.71809 15.0544 0.570248C15.2934 0.401285 15.5624 0.348485 15.8613 0.411846C16.1601 0.454086 16.5088 0.612488 16.9073 0.887052Z" fill="#3DA5D9"/>
<path d="M39.2073 22.7782C38.2908 22.7782 37.444 22.6093 36.667 22.2714C35.9099 21.9123 35.2424 21.4054 34.6646 20.7507C34.0869 20.096 33.6386 19.3145 33.3198 18.4063C33.001 17.4982 32.8416 16.495 32.8416 15.3967V9.09229C32.8416 8.73324 32.8715 8.41644 32.9313 8.14187C32.991 7.84619 33.1504 7.61387 33.4094 7.4449C33.6685 7.27594 34.0669 7.19146 34.6049 7.19146C35.1827 7.19146 35.5911 7.27594 35.8302 7.4449C36.0892 7.61387 36.2486 7.84619 36.3084 8.14187C36.3681 8.43756 36.398 8.76492 36.398 9.12397V15.3967C36.398 16.157 36.5176 16.8118 36.7567 17.3609C37.0157 17.91 37.3843 18.343 37.8624 18.6598C38.3406 18.9555 38.9284 19.1033 39.6257 19.1033C40.343 19.1033 40.9507 18.9555 41.4488 18.6598C41.9668 18.343 42.3653 17.91 42.6442 17.3609C42.9231 16.7906 43.0626 16.1359 43.0626 15.3967V9.06061C43.0626 8.70156 43.0925 8.38476 43.1523 8.11019C43.212 7.81451 43.3714 7.59275 43.6304 7.4449C43.8894 7.27594 44.2979 7.19146 44.8558 7.19146C45.4136 7.19146 45.8121 7.27594 46.0512 7.4449C46.2903 7.61387 46.4397 7.84619 46.4995 8.14187C46.5792 8.43756 46.619 8.75436 46.619 9.09229V20.9725C46.619 21.2893 46.5792 21.5849 46.4995 21.8595C46.4397 22.1341 46.2803 22.3558 46.0213 22.5248C45.7822 22.6938 45.3837 22.7782 44.8259 22.7782C44.4274 22.7782 44.1086 22.7254 43.8695 22.6198C43.6504 22.5354 43.481 22.4192 43.3615 22.2714C43.2618 22.1024 43.1921 21.9334 43.1523 21.7645C43.1323 21.5955 43.1224 21.4265 43.1224 21.2576L43.3615 20.4022C43.2419 20.5923 43.0626 20.8246 42.8235 21.0992C42.5844 21.3526 42.2856 21.6166 41.9269 21.8912C41.5882 22.1446 41.1897 22.3558 40.7315 22.5248C40.2732 22.6938 39.7652 22.7782 39.2073 22.7782Z" fill="#3DA5D9"/>
<path d="M61.5818 0.633608C61.8807 0.633608 62.1397 0.665289 62.3589 0.72865C62.5979 0.792011 62.7872 0.950414 62.9267 1.20386C63.0662 1.43618 63.1359 1.81635 63.1359 2.34435C63.1359 2.87236 63.0662 3.26309 62.9267 3.51653C62.7872 3.74885 62.5979 3.8967 62.3589 3.96006C62.1198 4.0023 61.8508 4.02342 61.5519 4.02342H56.0529V20.9091C56.0529 21.2681 56.0131 21.5955 55.9334 21.8912C55.8736 22.1658 55.7142 22.3875 55.4552 22.5565C55.2161 22.7254 54.8077 22.8099 54.2299 22.8099C53.6919 22.8099 53.2935 22.7149 53.0345 22.5248C52.7754 22.3558 52.6161 22.1341 52.5563 21.8595C52.4965 21.5638 52.4666 21.2365 52.4666 20.8774V4.02342H46.9078C46.6289 4.02342 46.3699 3.99174 46.1308 3.92838C45.8917 3.86501 45.6925 3.71717 45.5331 3.48485C45.3936 3.25253 45.3239 2.87236 45.3239 2.34435C45.3239 1.81635 45.3936 1.43618 45.5331 1.20386C45.6726 0.950414 45.8618 0.792011 46.1009 0.72865C46.3599 0.665289 46.6289 0.633608 46.9078 0.633608H61.5818Z" fill="#3DA5D9"/>
<path d="M63.7675 22.8099C63.2295 22.8099 62.831 22.7149 62.572 22.5248C62.3329 22.3558 62.1835 22.1235 62.1237 21.8278C62.064 21.5321 62.0341 21.2048 62.0341 20.8457V9.09229C62.0341 8.71212 62.064 8.38476 62.1237 8.11019C62.1835 7.81451 62.3329 7.59275 62.572 7.4449C62.831 7.27594 63.2395 7.19146 63.7973 7.19146C64.3353 7.19146 64.7238 7.26538 64.9629 7.41322C65.2219 7.56107 65.3813 7.75115 65.4411 7.98347C65.5208 8.19467 65.5606 8.40588 65.5606 8.61708L65.3215 9.18733C65.4212 9.01837 65.5606 8.81772 65.7399 8.5854C65.9193 8.33196 66.1583 8.08907 66.4572 7.85675C66.7561 7.60331 67.1147 7.40266 67.5331 7.25482C67.9515 7.08586 68.4496 7.00138 69.0274 7.00138C69.2665 7.00138 69.5155 7.03306 69.7745 7.09642C70.0535 7.13866 70.3224 7.21258 70.5815 7.31818C70.8604 7.40266 71.1094 7.51883 71.3286 7.66667C71.5478 7.81451 71.7171 7.99403 71.8367 8.20523C71.9562 8.39532 72.016 8.61708 72.016 8.87052C72.016 9.54637 71.8566 10.1166 71.5378 10.5813C71.219 11.0459 70.8405 11.2782 70.4021 11.2782C70.1033 11.2782 69.8841 11.2466 69.7447 11.1832C69.6052 11.1198 69.4856 11.0459 69.386 10.9614C69.3063 10.877 69.1768 10.803 68.9975 10.7397C68.8381 10.6763 68.5791 10.6446 68.2205 10.6446C67.9216 10.6446 67.6128 10.6974 67.294 10.803C66.9951 10.9086 66.7162 11.067 66.4572 11.2782C66.1982 11.4894 65.989 11.764 65.8296 12.1019C65.6702 12.4187 65.5905 12.7883 65.5905 13.2107V20.9091C65.5905 21.2681 65.5606 21.5955 65.5008 21.8912C65.4411 22.1658 65.2817 22.3875 65.0227 22.5565C64.7637 22.7254 64.3453 22.8099 63.7675 22.8099Z" fill="#3DA5D9"/>
<path d="M85.4646 22.7466C84.8868 22.7466 84.4585 22.6304 84.1796 22.3981C83.9006 22.1657 83.7611 21.8489 83.7611 21.4477L83.9703 20.4022C83.811 20.6768 83.542 21.0041 83.1634 21.3843C82.7849 21.7433 82.2868 22.0707 81.6691 22.3664C81.0515 22.641 80.3043 22.7782 79.4277 22.7782C78.4913 22.7782 77.6046 22.5776 76.7678 22.1763C75.951 21.7539 75.2237 21.1837 74.5862 20.4656C73.9685 19.7264 73.4704 18.8921 73.0919 17.9628C72.7332 17.0124 72.5539 15.9986 72.5539 14.9215C72.5539 13.8866 72.7332 12.9151 73.0919 12.0069C73.4704 11.0776 73.9785 10.2539 74.6161 9.53581C75.2536 8.81772 75.9808 8.25804 76.7977 7.85675C77.6345 7.43434 78.5112 7.22314 79.4277 7.22314C80.2446 7.22314 80.9319 7.3393 81.4898 7.57163C82.0676 7.80395 82.5557 8.09963 82.9542 8.45868C83.3527 8.7966 83.6814 9.15565 83.9405 9.53581L83.7611 8.61708C83.7611 8.15243 83.9006 7.80395 84.1796 7.57163C84.4585 7.31818 84.8968 7.19146 85.4945 7.19146C86.0524 7.19146 86.4509 7.2865 86.69 7.47658C86.9291 7.64555 87.0785 7.88843 87.1383 8.20523C87.198 8.50092 87.2279 8.83884 87.2279 9.21901V20.8141C87.2279 21.1731 87.198 21.5005 87.1383 21.7961C87.0785 22.0918 86.9191 22.3242 86.6601 22.4931C86.421 22.6621 86.0225 22.7466 85.4646 22.7466ZM79.9656 19.0716C80.6431 19.0716 81.2507 18.8921 81.7887 18.5331C82.3266 18.174 82.755 17.6882 83.0738 17.0758C83.4125 16.4422 83.5818 15.7452 83.5818 14.9848C83.5818 14.1612 83.4125 13.4431 83.0738 12.8306C82.7351 12.2181 82.2868 11.7429 81.7289 11.405C81.191 11.0459 80.5833 10.8664 79.9059 10.8664C79.1687 10.8664 78.5112 11.0565 77.9334 11.4366C77.3556 11.7957 76.8973 12.292 76.5586 12.9256C76.2399 13.5381 76.0805 14.2351 76.0805 15.0165C76.0805 15.7769 76.2498 16.4633 76.5885 17.0758C76.9272 17.6882 77.3855 18.174 77.9633 18.5331C78.561 18.8921 79.2284 19.0716 79.9656 19.0716Z" fill="#3DA5D9"/>
<path d="M96.4533 22.8733C96.0349 22.8733 95.6862 22.7994 95.4073 22.6515C95.1284 22.5037 94.9092 22.2608 94.7498 21.9229L89.3106 9.85262C89.0117 9.21901 88.932 8.71212 89.0715 8.33196C89.211 7.95179 89.5696 7.61387 90.1474 7.31818C90.7451 7.00138 91.2233 6.89578 91.5819 7.00138C91.9405 7.10698 92.2593 7.4977 92.5383 8.17355L96.4533 17.8995L100.309 8.36364C100.588 7.66667 100.906 7.2337 101.265 7.06474C101.624 6.87466 102.142 6.95914 102.819 7.31818C103.496 7.67723 103.855 8.07851 103.895 8.52204C103.935 8.94444 103.825 9.43021 103.566 9.97934L98.1568 21.9229C97.9974 22.2397 97.7783 22.472 97.4993 22.6198C97.2204 22.7888 96.8717 22.8733 96.4533 22.8733Z" fill="#3DA5D9"/>
<path d="M112.457 23C111.162 23 110.027 22.7782 109.05 22.3347C108.094 21.8912 107.287 21.2893 106.63 20.5289C105.992 19.7475 105.504 18.8815 105.165 17.9311C104.847 16.9596 104.687 15.9564 104.687 14.9215C104.687 13.4008 105.016 12.0491 105.673 10.8664C106.331 9.68366 107.237 8.75436 108.393 8.07851C109.568 7.40266 110.913 7.06474 112.428 7.06474C113.503 7.06474 114.45 7.24426 115.267 7.60331C116.084 7.96235 116.761 8.43756 117.299 9.02893C117.857 9.59917 118.275 10.2328 118.554 10.9298C118.853 11.6267 119.002 12.3026 119.002 12.9573C119.002 14.0767 118.743 14.8898 118.225 15.3967C117.727 15.9036 117.1 16.157 116.343 16.157H108.453C108.473 16.8751 108.682 17.4982 109.08 18.0262C109.499 18.5542 110.017 18.966 110.634 19.2617C111.272 19.5363 111.92 19.6736 112.577 19.6736C113.075 19.6736 113.513 19.6419 113.892 19.5785C114.29 19.5152 114.629 19.4412 114.908 19.3568C115.187 19.2512 115.426 19.1455 115.625 19.0399C115.845 18.9343 116.044 18.8393 116.223 18.7548C116.402 18.6703 116.572 18.6175 116.731 18.5964C116.95 18.5753 117.169 18.6281 117.389 18.7548C117.608 18.8815 117.787 19.1033 117.927 19.4201C118.046 19.6313 118.126 19.832 118.166 20.022C118.225 20.191 118.255 20.36 118.255 20.5289C118.255 20.9513 118.016 21.3526 117.538 21.7328C117.06 22.0918 116.382 22.3875 115.506 22.6198C114.649 22.8733 113.633 23 112.457 23ZM108.453 13.9077H114.579C114.918 13.9077 115.177 13.8549 115.356 13.7493C115.536 13.6226 115.625 13.3691 115.625 12.989C115.625 12.5032 115.486 12.0702 115.207 11.6901C114.928 11.2888 114.549 10.9826 114.071 10.7714C113.593 10.539 113.035 10.4229 112.398 10.4229C111.661 10.4229 110.993 10.5813 110.395 10.8981C109.798 11.1938 109.319 11.6056 108.961 12.1336C108.622 12.6616 108.453 13.253 108.453 13.9077Z" fill="#3DA5D9"/>
<path d="M126.595 22.8099C125.858 22.8099 125.201 22.7571 124.623 22.6515C124.065 22.5459 123.577 22.3664 123.158 22.1129C122.76 21.8595 122.431 21.5216 122.172 21.0992C121.913 20.6556 121.714 20.1171 121.575 19.4835C121.455 18.8499 121.395 18.0895 121.395 17.2025V1.93251C121.395 1.57346 121.425 1.25666 121.485 0.982094C121.565 0.68641 121.724 0.454087 121.963 0.285124C122.222 0.0950413 122.631 0 123.188 0C123.746 0 124.145 0.0844814 124.384 0.253444C124.643 0.422407 124.802 0.65473 124.862 0.950414C124.942 1.22498 124.982 1.54178 124.982 1.90083V17.0441C124.982 17.4454 125.001 17.7833 125.041 18.0579C125.101 18.3113 125.191 18.5225 125.31 18.6915C125.45 18.8393 125.619 18.9449 125.818 19.0083C126.037 19.0716 126.297 19.1033 126.595 19.1033C126.854 19.1033 127.084 19.135 127.283 19.1983C127.502 19.2617 127.671 19.4201 127.791 19.6736C127.93 19.927 128 20.3388 128 20.9091C128 21.5005 127.93 21.9334 127.791 22.208C127.671 22.4826 127.502 22.6515 127.283 22.7149C127.064 22.7782 126.834 22.8099 126.595 22.8099Z" fill="#3DA5D9"/>
<path d="M23.2095 6.90037C27.3359 6.90037 30.681 10.5017 30.681 14.9442C30.681 19.3867 27.3359 22.9881 23.2095 22.9881C19.0831 22.9881 15.738 19.3867 15.738 14.9442C15.738 10.5017 19.0831 6.90037 23.2095 6.90037ZM26.2013 15.6502C25.9433 15.2284 25.7571 14.9238 25.0491 15.0446C23.7114 15.2732 23.5631 15.5253 23.4992 15.9397L23.4812 16.0658L23.463 16.1988C23.39 16.7483 23.3928 16.9562 23.6271 17.2213C24.5724 18.289 25.1386 19.0587 25.3102 19.5088C25.3939 19.729 25.6093 20.394 25.4611 21.0517C26.3753 20.6607 27.1811 20.0386 27.8159 19.2524C27.8982 18.9518 27.9577 18.5773 27.9577 18.123V18.0389C27.9577 17.2968 27.9577 16.9584 27.4706 16.6587C27.265 16.533 27.1116 16.4573 26.9887 16.3973C26.7144 16.2629 26.5328 16.1747 26.2876 15.7888C26.2584 15.7428 26.2299 15.697 26.2013 15.6502ZM23.2095 8.37507C21.4781 8.37507 19.9151 9.15151 18.8045 10.3986C18.9367 10.4975 19.0519 10.6364 19.1311 10.8278C19.2835 11.196 19.2835 11.5748 19.2835 11.9098C19.2832 12.1741 19.2828 12.4242 19.3616 12.6059C19.4696 12.8539 19.9343 12.9592 20.3446 13.0518C20.4911 13.085 20.6423 13.1189 20.7798 13.1599C21.1579 13.273 21.4504 13.6383 21.6849 13.9317C21.7822 14.0539 21.9258 14.2334 21.9979 14.278C22.0354 14.2489 22.156 14.1083 22.2157 13.8772C22.2612 13.7012 22.2482 13.5444 22.1814 13.4596C21.7636 12.9288 21.7863 11.9062 21.9155 11.5296C22.1188 10.9352 22.7541 10.9791 23.2185 11.0116C23.3917 11.0236 23.5551 11.0351 23.677 11.0186C24.1421 10.9558 24.2851 10.1946 24.3863 10.0455C24.6045 9.72361 25.2722 9.2388 25.6869 8.93912C24.9298 8.57656 24.0915 8.37507 23.2095 8.37507Z" fill="#3DA5D9"/>
</svg>
