<svg width="16" height="9" viewBox="0 0 16 9" fill="none" xmlns="http://www.w3.org/2000/svg">
<path d="M8.71455 9C3.24797 9 0.129919 5.62162 0 0H2.73829C2.82823 4.12613 4.84697 5.87387 6.44597 6.23423V0H9.02436V3.55856C10.6034 3.40541 12.2623 1.78378 12.822 0H15.4004C15.1895 0.925121 14.7691 1.80106 14.1655 2.57304C13.562 3.34501 12.7882 3.99641 11.8926 4.48649C12.8923 4.93429 13.7753 5.56811 14.4833 6.34612C15.1913 7.12414 15.7082 8.02866 16 9H13.1618C12.8999 8.15632 12.3676 7.40109 11.6316 6.82896C10.8956 6.25683 9.9886 5.89325 9.02436 5.78378V9H8.71455Z" fill="#3DA5D9"/>
</svg>
